<mxfile host="app.diagrams.net" modified="2023-05-15T03:31:25.665Z" agent="Mozilla/5.0 (Windows NT 10.0; Win64; x64) AppleWebKit/537.36 (KHTML, like Gecko) Chrome/113.0.0.0 Safari/537.36 Edg/113.0.1774.42" etag="dZnoD4HbpcGE0Xgf54y_" version="21.3.0" type="google">
  <diagram name="Page-1" id="NuK5uWofoLA97xDrvUln">
    <mxGraphModel grid="1" page="1" gridSize="10" guides="1" tooltips="1" connect="1" arrows="1" fold="1" pageScale="1" pageWidth="850" pageHeight="1100" math="0" shadow="0">
      <root>
        <mxCell id="0" />
        <mxCell id="1" parent="0" />
        <mxCell id="U1owXLewYoYy_V6jrNno-3" style="edgeStyle=orthogonalEdgeStyle;rounded=0;orthogonalLoop=1;jettySize=auto;html=1;entryX=0;entryY=0.5;entryDx=0;entryDy=0;" edge="1" parent="1" source="9AVUcl8GkE_RdI0IuiwY-1" target="yLdpovQoA73VeCSyaXZX-3">
          <mxGeometry relative="1" as="geometry" />
        </mxCell>
        <mxCell id="9AVUcl8GkE_RdI0IuiwY-1" value="" style="ellipse;whiteSpace=wrap;html=1;aspect=fixed;fillColor=#d5e8d4;strokeColor=#82b366;" vertex="1" parent="1">
          <mxGeometry x="-1610" y="25" width="50" height="50" as="geometry" />
        </mxCell>
        <mxCell id="U1owXLewYoYy_V6jrNno-2" value="" style="edgeStyle=orthogonalEdgeStyle;rounded=0;orthogonalLoop=1;jettySize=auto;html=1;" edge="1" parent="1" source="yLdpovQoA73VeCSyaXZX-3" target="U1owXLewYoYy_V6jrNno-1">
          <mxGeometry relative="1" as="geometry" />
        </mxCell>
        <mxCell id="yLdpovQoA73VeCSyaXZX-3" value="Lanzamiento de competencia" style="rounded=0;whiteSpace=wrap;html=1;fillColor=#fff2cc;strokeColor=#d6b656;" vertex="1" parent="1">
          <mxGeometry x="-1490" y="20" width="120" height="60" as="geometry" />
        </mxCell>
        <mxCell id="yLdpovQoA73VeCSyaXZX-6" style="edgeStyle=orthogonalEdgeStyle;rounded=0;orthogonalLoop=1;jettySize=auto;html=1;" edge="1" parent="1" source="9AVUcl8GkE_RdI0IuiwY-3" target="1CGTFNPT9L3lcRgPOCcS-1">
          <mxGeometry relative="1" as="geometry">
            <mxPoint x="-1070" y="270" as="targetPoint" />
            <Array as="points">
              <mxPoint x="-1060" y="160" />
            </Array>
          </mxGeometry>
        </mxCell>
        <mxCell id="1CGTFNPT9L3lcRgPOCcS-12" value="No" style="edgeLabel;html=1;align=center;verticalAlign=middle;resizable=0;points=[];" connectable="0" vertex="1" parent="yLdpovQoA73VeCSyaXZX-6">
          <mxGeometry x="-0.6196" y="1" relative="1" as="geometry">
            <mxPoint y="-1" as="offset" />
          </mxGeometry>
        </mxCell>
        <mxCell id="yLdpovQoA73VeCSyaXZX-7" style="edgeStyle=orthogonalEdgeStyle;rounded=0;orthogonalLoop=1;jettySize=auto;html=1;entryX=0;entryY=0.5;entryDx=0;entryDy=0;" edge="1" parent="1" source="9AVUcl8GkE_RdI0IuiwY-3" target="9AVUcl8GkE_RdI0IuiwY-4">
          <mxGeometry relative="1" as="geometry">
            <mxPoint x="-930" y="50" as="targetPoint" />
            <Array as="points">
              <mxPoint x="-860" y="50" />
            </Array>
          </mxGeometry>
        </mxCell>
        <mxCell id="yLdpovQoA73VeCSyaXZX-8" value="Si" style="edgeLabel;html=1;align=center;verticalAlign=middle;resizable=0;points=[];" connectable="0" vertex="1" parent="yLdpovQoA73VeCSyaXZX-7">
          <mxGeometry x="-0.1305" y="1" relative="1" as="geometry">
            <mxPoint x="-54" y="1" as="offset" />
          </mxGeometry>
        </mxCell>
        <mxCell id="9AVUcl8GkE_RdI0IuiwY-3" value="Tiene interes" style="rhombus;whiteSpace=wrap;html=1;" vertex="1" parent="1">
          <mxGeometry x="-1110" y="5.5" width="100" height="89" as="geometry" />
        </mxCell>
        <mxCell id="1CGTFNPT9L3lcRgPOCcS-6" style="edgeStyle=orthogonalEdgeStyle;rounded=0;orthogonalLoop=1;jettySize=auto;html=1;entryX=0;entryY=0.5;entryDx=0;entryDy=0;" edge="1" parent="1" source="9AVUcl8GkE_RdI0IuiwY-4" target="9AVUcl8GkE_RdI0IuiwY-6">
          <mxGeometry relative="1" as="geometry" />
        </mxCell>
        <mxCell id="NmHB_8l42OeITPEXI50R-4" style="edgeStyle=orthogonalEdgeStyle;rounded=0;orthogonalLoop=1;jettySize=auto;html=1;entryX=0;entryY=0.5;entryDx=0;entryDy=0;" edge="1" parent="1" source="9AVUcl8GkE_RdI0IuiwY-4" target="9AVUcl8GkE_RdI0IuiwY-6">
          <mxGeometry relative="1" as="geometry" />
        </mxCell>
        <mxCell id="9AVUcl8GkE_RdI0IuiwY-4" value="Enviar Informaci贸n" style="rounded=0;whiteSpace=wrap;html=1;fillColor=#fff2cc;strokeColor=#d6b656;" vertex="1" parent="1">
          <mxGeometry x="-940" y="25" width="120" height="60" as="geometry" />
        </mxCell>
        <mxCell id="yLdpovQoA73VeCSyaXZX-5" style="edgeStyle=orthogonalEdgeStyle;rounded=0;orthogonalLoop=1;jettySize=auto;html=1;" edge="1" parent="1" source="U1owXLewYoYy_V6jrNno-1" target="9AVUcl8GkE_RdI0IuiwY-3">
          <mxGeometry relative="1" as="geometry" />
        </mxCell>
        <mxCell id="U1owXLewYoYy_V6jrNno-1" value="Pre-Inscripci贸n" style="whiteSpace=wrap;html=1;rounded=0;fillColor=#dae8fc;strokeColor=#6c8ebf;" vertex="1" parent="1">
          <mxGeometry x="-1300" y="20" width="120" height="60" as="geometry" />
        </mxCell>
        <mxCell id="1CGTFNPT9L3lcRgPOCcS-7" style="edgeStyle=orthogonalEdgeStyle;rounded=0;orthogonalLoop=1;jettySize=auto;html=1;entryX=0;entryY=0.5;entryDx=0;entryDy=0;" edge="1" parent="1" source="9AVUcl8GkE_RdI0IuiwY-6" target="1kPLU9ai8IVUzovQDhuM-3">
          <mxGeometry relative="1" as="geometry" />
        </mxCell>
        <mxCell id="NmHB_8l42OeITPEXI50R-5" style="edgeStyle=orthogonalEdgeStyle;rounded=0;orthogonalLoop=1;jettySize=auto;html=1;entryX=0;entryY=0.5;entryDx=0;entryDy=0;" edge="1" parent="1" source="9AVUcl8GkE_RdI0IuiwY-6" target="1kPLU9ai8IVUzovQDhuM-3">
          <mxGeometry relative="1" as="geometry" />
        </mxCell>
        <mxCell id="9AVUcl8GkE_RdI0IuiwY-6" value="Inscripci贸n" style="rounded=0;whiteSpace=wrap;html=1;fillColor=#dae8fc;strokeColor=#6c8ebf;" vertex="1" parent="1">
          <mxGeometry x="-750" y="25" width="120" height="60" as="geometry" />
        </mxCell>
        <mxCell id="9AVUcl8GkE_RdI0IuiwY-15" style="edgeStyle=orthogonalEdgeStyle;rounded=0;orthogonalLoop=1;jettySize=auto;html=1;exitX=1;exitY=0.5;exitDx=0;exitDy=0;entryX=0;entryY=0.5;entryDx=0;entryDy=0;" edge="1" parent="1" source="U1owXLewYoYy_V6jrNno-4" target="9AVUcl8GkE_RdI0IuiwY-12">
          <mxGeometry relative="1" as="geometry">
            <mxPoint x="24" y="50" as="targetPoint" />
          </mxGeometry>
        </mxCell>
        <mxCell id="U1owXLewYoYy_V6jrNno-4" value="Competir" style="whiteSpace=wrap;html=1;fillColor=#dae8fc;strokeColor=#6c8ebf;" vertex="1" parent="1">
          <mxGeometry x="-410" y="25" width="120" height="60" as="geometry" />
        </mxCell>
        <mxCell id="9AVUcl8GkE_RdI0IuiwY-14" style="edgeStyle=orthogonalEdgeStyle;rounded=0;orthogonalLoop=1;jettySize=auto;html=1;exitX=1;exitY=0.5;exitDx=0;exitDy=0;" edge="1" parent="1" source="9AVUcl8GkE_RdI0IuiwY-12" target="9AVUcl8GkE_RdI0IuiwY-13">
          <mxGeometry relative="1" as="geometry">
            <mxPoint x="104" y="50" as="sourcePoint" />
          </mxGeometry>
        </mxCell>
        <mxCell id="U1owXLewYoYy_V6jrNno-8" value="Si" style="edgeLabel;html=1;align=center;verticalAlign=middle;resizable=0;points=[];" connectable="0" vertex="1" parent="9AVUcl8GkE_RdI0IuiwY-14">
          <mxGeometry x="-0.2667" y="1" relative="1" as="geometry">
            <mxPoint as="offset" />
          </mxGeometry>
        </mxCell>
        <mxCell id="1kPLU9ai8IVUzovQDhuM-11" style="edgeStyle=orthogonalEdgeStyle;rounded=0;orthogonalLoop=1;jettySize=auto;html=1;entryX=0.5;entryY=0;entryDx=0;entryDy=0;" edge="1" parent="1" source="9AVUcl8GkE_RdI0IuiwY-12" target="U1owXLewYoYy_V6jrNno-13">
          <mxGeometry relative="1" as="geometry">
            <Array as="points">
              <mxPoint x="-200" y="140" />
              <mxPoint x="-20" y="140" />
            </Array>
          </mxGeometry>
        </mxCell>
        <mxCell id="1kPLU9ai8IVUzovQDhuM-14" value="No" style="edgeLabel;html=1;align=center;verticalAlign=middle;resizable=0;points=[];" connectable="0" vertex="1" parent="1kPLU9ai8IVUzovQDhuM-11">
          <mxGeometry x="-0.7417" y="1" relative="1" as="geometry">
            <mxPoint y="-9" as="offset" />
          </mxGeometry>
        </mxCell>
        <mxCell id="9AVUcl8GkE_RdI0IuiwY-12" value="Es virtual?" style="rhombus;whiteSpace=wrap;html=1;" vertex="1" parent="1">
          <mxGeometry x="-240" y="15" width="80" height="80" as="geometry" />
        </mxCell>
        <mxCell id="9AVUcl8GkE_RdI0IuiwY-18" style="edgeStyle=orthogonalEdgeStyle;rounded=0;orthogonalLoop=1;jettySize=auto;html=1;" edge="1" parent="1" source="9AVUcl8GkE_RdI0IuiwY-13" target="9AVUcl8GkE_RdI0IuiwY-17">
          <mxGeometry relative="1" as="geometry" />
        </mxCell>
        <mxCell id="9AVUcl8GkE_RdI0IuiwY-13" value="Enviar Videos" style="whiteSpace=wrap;html=1;fillColor=#dae8fc;strokeColor=#6c8ebf;" vertex="1" parent="1">
          <mxGeometry x="-110" y="25" width="120" height="60" as="geometry" />
        </mxCell>
        <mxCell id="1kPLU9ai8IVUzovQDhuM-13" style="edgeStyle=orthogonalEdgeStyle;rounded=0;orthogonalLoop=1;jettySize=auto;html=1;entryX=0.5;entryY=0;entryDx=0;entryDy=0;" edge="1" parent="1" source="9AVUcl8GkE_RdI0IuiwY-17" target="U1owXLewYoYy_V6jrNno-13">
          <mxGeometry relative="1" as="geometry">
            <Array as="points">
              <mxPoint x="130" y="140" />
              <mxPoint x="-20" y="140" />
            </Array>
          </mxGeometry>
        </mxCell>
        <mxCell id="9AVUcl8GkE_RdI0IuiwY-17" value="Verificaci贸n Videos" style="rounded=0;whiteSpace=wrap;html=1;fillColor=#dae8fc;strokeColor=#6c8ebf;" vertex="1" parent="1">
          <mxGeometry x="70" y="25" width="120" height="60" as="geometry" />
        </mxCell>
        <mxCell id="U1owXLewYoYy_V6jrNno-19" value="" style="edgeStyle=orthogonalEdgeStyle;rounded=0;orthogonalLoop=1;jettySize=auto;html=1;" edge="1" parent="1" source="9AVUcl8GkE_RdI0IuiwY-19" target="U1owXLewYoYy_V6jrNno-18">
          <mxGeometry relative="1" as="geometry" />
        </mxCell>
        <mxCell id="9AVUcl8GkE_RdI0IuiwY-19" value="Asignaci贸n Puntajes" style="rounded=0;whiteSpace=wrap;html=1;fillColor=#fff2cc;strokeColor=#d6b656;" vertex="1" parent="1">
          <mxGeometry x="-80" y="390" width="120" height="60" as="geometry" />
        </mxCell>
        <mxCell id="U1owXLewYoYy_V6jrNno-17" style="edgeStyle=orthogonalEdgeStyle;rounded=0;orthogonalLoop=1;jettySize=auto;html=1;entryX=0.5;entryY=0;entryDx=0;entryDy=0;" edge="1" parent="1" source="U1owXLewYoYy_V6jrNno-12" target="9AVUcl8GkE_RdI0IuiwY-19">
          <mxGeometry relative="1" as="geometry" />
        </mxCell>
        <mxCell id="U1owXLewYoYy_V6jrNno-12" value="Puntuar" style="rounded=0;whiteSpace=wrap;html=1;fillColor=#dae8fc;strokeColor=#6c8ebf;" vertex="1" parent="1">
          <mxGeometry x="-80" y="290" width="120" height="60" as="geometry" />
        </mxCell>
        <mxCell id="1CGTFNPT9L3lcRgPOCcS-10" style="edgeStyle=orthogonalEdgeStyle;rounded=0;orthogonalLoop=1;jettySize=auto;html=1;exitX=0.5;exitY=1;exitDx=0;exitDy=0;entryX=0.5;entryY=0;entryDx=0;entryDy=0;" edge="1" parent="1" source="U1owXLewYoYy_V6jrNno-13" target="U1owXLewYoYy_V6jrNno-12">
          <mxGeometry relative="1" as="geometry" />
        </mxCell>
        <mxCell id="U1owXLewYoYy_V6jrNno-13" value="" style="rhombus;whiteSpace=wrap;html=1;" vertex="1" parent="1">
          <mxGeometry x="-60" y="170" width="80" height="80" as="geometry" />
        </mxCell>
        <mxCell id="U1owXLewYoYy_V6jrNno-18" value="Entrega de premios" style="whiteSpace=wrap;html=1;fillColor=#dae8fc;strokeColor=#6c8ebf;rounded=0;" vertex="1" parent="1">
          <mxGeometry x="-80" y="500" width="120" height="60" as="geometry" />
        </mxCell>
        <mxCell id="9AVUcl8GkE_RdI0IuiwY-30" value="" style="ellipse;whiteSpace=wrap;html=1;aspect=fixed;fillColor=#000000;strokeColor=#000000;" vertex="1" parent="1">
          <mxGeometry x="-35" y="710" width="30" height="30" as="geometry" />
        </mxCell>
        <mxCell id="1kPLU9ai8IVUzovQDhuM-1" style="edgeStyle=orthogonalEdgeStyle;rounded=0;orthogonalLoop=1;jettySize=auto;html=1;entryX=0.5;entryY=0;entryDx=0;entryDy=0;" edge="1" parent="1" source="9AVUcl8GkE_RdI0IuiwY-33">
          <mxGeometry relative="1" as="geometry">
            <mxPoint x="-20" y="710" as="targetPoint" />
          </mxGeometry>
        </mxCell>
        <mxCell id="9AVUcl8GkE_RdI0IuiwY-34" value="" style="edgeStyle=orthogonalEdgeStyle;rounded=0;orthogonalLoop=1;jettySize=auto;html=1;entryX=0.5;entryY=0;entryDx=0;entryDy=0;" edge="1" parent="1" source="U1owXLewYoYy_V6jrNno-18" target="9AVUcl8GkE_RdI0IuiwY-33">
          <mxGeometry relative="1" as="geometry">
            <mxPoint x="324" y="560" as="sourcePoint" />
            <mxPoint x="324" y="740" as="targetPoint" />
          </mxGeometry>
        </mxCell>
        <mxCell id="9AVUcl8GkE_RdI0IuiwY-33" value="Enviar mail resultados" style="rounded=0;whiteSpace=wrap;html=1;fillColor=#fff2cc;strokeColor=#d6b656;" vertex="1" parent="1">
          <mxGeometry x="-80" y="600" width="120" height="60" as="geometry" />
        </mxCell>
        <mxCell id="1kPLU9ai8IVUzovQDhuM-7" style="edgeStyle=orthogonalEdgeStyle;rounded=0;orthogonalLoop=1;jettySize=auto;html=1;entryX=0;entryY=0.5;entryDx=0;entryDy=0;" edge="1" parent="1" source="1kPLU9ai8IVUzovQDhuM-3" target="U1owXLewYoYy_V6jrNno-4">
          <mxGeometry relative="1" as="geometry" />
        </mxCell>
        <mxCell id="1kPLU9ai8IVUzovQDhuM-8" value="Si" style="edgeLabel;html=1;align=center;verticalAlign=middle;resizable=0;points=[];" connectable="0" vertex="1" parent="1kPLU9ai8IVUzovQDhuM-7">
          <mxGeometry x="-0.782" y="1" relative="1" as="geometry">
            <mxPoint x="21" y="1" as="offset" />
          </mxGeometry>
        </mxCell>
        <mxCell id="1kPLU9ai8IVUzovQDhuM-3" value="Realiz贸 pago?" style="rhombus;whiteSpace=wrap;html=1;" vertex="1" parent="1">
          <mxGeometry x="-580" y="10.5" width="100" height="89" as="geometry" />
        </mxCell>
        <mxCell id="1CGTFNPT9L3lcRgPOCcS-8" style="edgeStyle=orthogonalEdgeStyle;rounded=0;orthogonalLoop=1;jettySize=auto;html=1;exitX=0.5;exitY=1;exitDx=0;exitDy=0;" edge="1" parent="1" source="1CGTFNPT9L3lcRgPOCcS-1" target="1CGTFNPT9L3lcRgPOCcS-2">
          <mxGeometry relative="1" as="geometry" />
        </mxCell>
        <mxCell id="1CGTFNPT9L3lcRgPOCcS-1" value="" style="rhombus;whiteSpace=wrap;html=1;" vertex="1" parent="1">
          <mxGeometry x="-850" y="120" width="80" height="80" as="geometry" />
        </mxCell>
        <mxCell id="1CGTFNPT9L3lcRgPOCcS-2" value="" style="ellipse;whiteSpace=wrap;html=1;aspect=fixed;fillColor=#000000;strokeColor=#000000;" vertex="1" parent="1">
          <mxGeometry x="-825" y="260" width="30" height="30" as="geometry" />
        </mxCell>
        <mxCell id="1CGTFNPT9L3lcRgPOCcS-4" value="No" style="edgeStyle=orthogonalEdgeStyle;rounded=0;orthogonalLoop=1;jettySize=auto;html=1;entryX=1;entryY=0.5;entryDx=0;entryDy=0;exitX=0.5;exitY=1;exitDx=0;exitDy=0;" edge="1" parent="1" source="1kPLU9ai8IVUzovQDhuM-3" target="1CGTFNPT9L3lcRgPOCcS-1">
          <mxGeometry x="-0.8163" relative="1" as="geometry">
            <Array as="points">
              <mxPoint x="-530" y="160" />
            </Array>
            <mxPoint as="offset" />
          </mxGeometry>
        </mxCell>
      </root>
    </mxGraphModel>
  </diagram>
</mxfile>
